<?xml version="1.0" standalone="no"?>
<!DOCTYPE svg PUBLIC "-//W3C//DTD SVG 20010904//EN"
 "http://www.w3.org/TR/2001/REC-SVG-20010904/DTD/svg10.dtd">
<svg version="1.0" xmlns="http://www.w3.org/2000/svg"
 width="1028.000000pt" height="910.000000pt" viewBox="0 0 1028.000000 910.000000"
 preserveAspectRatio="xMidYMid meet">

<g transform="translate(0.000000,910.000000) scale(0.100000,-0.100000)"
fill="black" stroke="none">
<path d="M3620 8908 c-1126 -49 -2087 -497 -2637 -1228 -144 -190 -240 -358
-334 -585 -33 -78 -40 -85 -88 -85 -81 0 -231 -58 -300 -116 -82 -69 -127
-182 -111 -279 19 -116 118 -244 243 -315 l57 -32 0 -206 c0 -778 245 -1535
738 -2287 494 -752 1242 -1450 2107 -1965 170 -101 525 -284 730 -375 677
-303 1395 -490 2070 -540 122 -9 119 -8 155 -77 156 -301 455 -543 757 -613
386 -90 731 88 847 436 32 96 48 238 40 342 -4 45 -7 84 -6 86 1 2 50 21 109
41 254 87 539 229 758 375 597 400 994 982 1144 1675 143 664 31 1447 -312
2185 -439 942 -1212 1809 -2178 2444 -107 70 -117 80 -133 123 -21 59 -102
149 -179 199 -100 65 -239 100 -315 80 -40 -11 -45 -10 -179 58 -926 463
-2005 702 -2983 659z m760 -249 c641 -41 1373 -233 2017 -527 228 -105 287
-138 306 -171 72 -124 273 -241 414 -241 39 0 59 -9 147 -66 392 -257 810
-608 1120 -943 703 -760 1104 -1564 1208 -2421 16 -135 16 -474 0 -610 -28
-225 -84 -458 -153 -633 -224 -565 -679 -1041 -1259 -1320 -167 -80 -445 -188
-482 -187 -7 1 -33 28 -58 61 -25 34 -81 95 -124 136 -388 366 -913 409 -1204
99 -95 -102 -158 -234 -182 -379 -5 -33 -12 -62 -14 -65 -7 -6 -216 15 -371
39 -607 93 -1197 285 -1797 585 -641 321 -1128 671 -1628 1173 -434 434 -726
832 -970 1321 -191 382 -329 812 -374 1165 -19 147 -29 371 -21 455 l7 68 44
11 c120 30 227 106 282 201 24 39 27 56 27 130 0 74 -4 93 -29 145 -29 58
-111 150 -170 192 l-28 20 37 94 c194 485 555 912 1003 1184 616 373 1391 540
2252 484z"/>
<path d="M4360 7864 c-243 -29 -313 -40 -420 -65 -325 -77 -598 -198 -830
-370 -116 -86 -301 -274 -382 -389 -366 -516 -409 -1224 -118 -1935 5 -11 32
-70 60 -131 l52 -112 -61 -61 c-66 -66 -103 -130 -126 -218 -70 -267 134 -575
467 -707 36 -14 99 -33 140 -42 83 -17 252 -20 322 -4 l47 10 97 -86 c373
-333 909 -660 1382 -841 261 -100 585 -193 780 -223 41 -6 95 -16 120 -20 25
-5 95 -14 155 -20 61 -6 132 -13 160 -16 83 -9 433 -5 545 7 174 17 364 54
515 97 565 165 983 500 1206 966 89 189 133 344 160 570 15 122 6 417 -16 531
-32 168 -33 152 14 165 55 14 118 77 127 125 27 146 -68 318 -240 433 -40 27
-96 57 -125 67 -28 11 -51 22 -51 25 0 13 -125 229 -185 320 -151 229 -292
399 -519 625 -253 252 -515 458 -818 644 -559 344 -1181 566 -1782 637 -123
15 -598 27 -676 18z m665 -185 c320 -28 723 -128 1055 -262 860 -346 1568
-942 1994 -1677 69 -120 73 -130 54 -130 -25 0 -81 -55 -100 -98 -28 -63 -20
-143 23 -230 41 -85 159 -204 245 -250 70 -37 67 -28 90 -202 29 -222 11 -493
-47 -695 -79 -275 -184 -451 -399 -666 -168 -169 -310 -265 -535 -364 -877
-386 -2119 -189 -3155 500 -190 127 -480 357 -480 381 0 4 14 22 31 42 73 83
109 220 90 342 -20 128 -73 231 -170 334 -158 165 -374 257 -615 261 l-110 1
-25 50 c-15 28 -34 68 -43 90 -9 21 -27 62 -38 89 -43 99 -99 282 -124 400
-70 340 -57 650 40 944 83 250 251 503 444 669 428 369 1050 534 1775 471z"/>
<path d="M4784 7008 c-44 -5 -128 -21 -186 -36 l-104 -28 -55 25 c-80 37 -207
41 -268 9 -61 -32 -86 -68 -86 -126 0 -26 7 -61 16 -78 l16 -32 -43 -36 c-51
-43 -149 -162 -189 -231 -89 -150 -125 -281 -132 -475 -9 -243 37 -440 163
-696 227 -465 710 -897 1264 -1132 231 -98 448 -155 727 -191 92 -12 406 -6
481 9 241 49 299 68 453 147 156 79 290 197 385 339 109 164 153 305 161 514
8 230 -33 422 -138 650 -37 78 -120 230 -140 254 -5 6 -39 52 -75 101 -173
236 -424 461 -716 643 -162 101 -427 220 -624 281 -283 87 -628 121 -910 89z
m626 -127 c637 -112 1237 -498 1583 -1014 61 -92 159 -290 191 -388 85 -265
81 -536 -13 -759 -63 -151 -202 -310 -359 -411 -259 -166 -671 -229 -1057
-160 -410 72 -796 249 -1125 514 -192 155 -419 411 -504 569 -16 29 -39 72
-52 95 -62 112 -133 326 -150 453 -8 59 -8 285 0 298 2 4 7 27 11 50 21 146
123 337 238 451 l55 53 63 -25 c84 -33 128 -41 194 -32 127 15 193 122 141
226 -9 18 -16 33 -16 35 0 3 62 24 89 29 13 2 31 7 42 10 119 38 472 41 669 6z"/>
</g>
</svg>
