<?xml version="1.0" standalone="no"?>
<!DOCTYPE svg PUBLIC "-//W3C//DTD SVG 20010904//EN"
 "http://www.w3.org/TR/2001/REC-SVG-20010904/DTD/svg10.dtd">
<svg version="1.0" xmlns="http://www.w3.org/2000/svg"
 width="995.000000pt" height="851.000000pt" viewBox="0 0 995.000000 851.000000"
 preserveAspectRatio="xMidYMid meet">

<g transform="translate(0.000000,851.000000) scale(0.100000,-0.100000)"
fill="#000000" stroke="none">
<path d="M3285 8448 c-1095 -87 -2008 -580 -2515 -1355 l-85 -130 -65 -7 c-35
-4 -98 -18 -140 -32 -197 -67 -346 -216 -416 -419 -25 -71 -28 -94 -28 -205 0
-111 3 -134 28 -205 44 -128 129 -248 229 -323 l28 -21 -1 -213 c-1 -376 52
-759 157 -1118 42 -146 127 -385 169 -478 13 -29 24 -55 24 -57 0 -22 181
-387 262 -530 70 -122 102 -174 217 -350 136 -210 422 -569 612 -770 52 -55
106 -113 119 -129 44 -51 352 -337 481 -446 1134 -960 2558 -1553 3889 -1619
505 -24 941 20 1405 143 232 62 408 126 634 232 l94 44 47 -30 c235 -151 569
-144 807 18 305 207 413 585 266 930 l-35 82 40 68 c317 536 442 1238 347
1945 -112 822 -509 1688 -1129 2457 -233 289 -611 674 -904 919 l-172 145 0
47 c0 143 -156 255 -294 209 -36 -11 -38 -11 -139 58 -973 658 -2090 1061
-3162 1141 -164 13 -612 12 -770 -1z m937 -238 c477 -33 1012 -152 1513 -337
438 -162 935 -416 1336 -682 l130 -86 2 -71 c2 -59 7 -78 32 -119 56 -91 175
-129 275 -89 l40 16 97 -82 c635 -536 1136 -1154 1453 -1795 231 -466 354
-856 417 -1315 24 -177 24 -598 0 -770 -45 -322 -124 -574 -266 -845 -43 -83
-131 -231 -155 -262 -1 -1 -33 7 -71 18 -39 11 -113 23 -165 26 -445 27 -812
-343 -787 -792 l6 -100 -42 -19 c-315 -140 -570 -215 -881 -260 -730 -107
-1524 -25 -2301 236 -752 253 -1465 649 -2066 1149 -370 308 -740 693 -1004
1044 -90 121 -279 406 -350 530 -69 118 -187 352 -245 485 -150 338 -266 741
-310 1073 -7 48 -13 180 -14 293 l-1 206 62 23 c181 69 322 217 389 410 25 71
28 94 28 205 0 111 -3 134 -28 205 -31 89 -68 156 -129 228 l-40 49 22 46 c32
65 157 250 238 352 90 114 276 299 394 392 451 358 1078 585 1754 637 161 12
491 13 667 1z"/>
<path d="M4185 7414 c-737 -81 -1294 -426 -1591 -984 -214 -402 -255 -935
-113 -1470 27 -101 54 -184 114 -350 17 -46 180 -382 212 -435 49 -83 207
-319 254 -380 l52 -69 -23 -64 c-62 -174 -24 -349 104 -478 126 -125 314 -168
471 -106 l50 20 75 -62 c578 -478 1302 -830 1985 -965 266 -52 363 -62 640
-67 321 -6 496 13 760 81 667 171 1139 589 1329 1177 64 199 86 352 87 613 l1
180 41 30 c161 117 182 342 47 489 -49 53 -124 93 -190 102 l-46 6 -23 67
c-13 36 -51 125 -84 196 -291 636 -780 1208 -1420 1662 -562 400 -1221 677
-1849 777 -279 45 -639 57 -883 30z m658 -169 c126 -6 336 -36 492 -71 550
-124 1131 -395 1590 -744 612 -464 1075 -1059 1284 -1646 l53 -152 -46 -42
c-25 -23 -58 -68 -73 -99 -24 -48 -28 -68 -28 -141 0 -73 4 -93 28 -142 33
-68 109 -139 172 -164 l45 -17 0 -57 c0 -161 -41 -404 -92 -550 -76 -217 -228
-454 -381 -596 -303 -282 -658 -437 -1152 -504 -123 -16 -496 -13 -635 6 -25
3 -58 8 -74 10 -299 38 -685 147 -1001 283 -258 112 -592 300 -795 449 -122
89 -295 226 -304 240 -3 6 1 27 10 48 9 21 18 70 21 109 10 135 -34 253 -131
351 -116 116 -274 160 -426 119 l-55 -14 -23 27 c-44 51 -150 207 -211 311
-391 655 -500 1315 -310 1876 74 217 197 413 369 586 263 265 626 436 1071
505 98 15 399 33 464 27 17 -1 78 -5 138 -8z"/>
<path d="M4910 6583 c-150 -5 -318 -36 -452 -82 l-58 -20 -47 27 c-41 23 -59
27 -128 27 -85 0 -129 -16 -192 -69 -69 -58 -109 -190 -85 -278 9 -32 7 -41
-9 -62 -31 -39 -85 -139 -112 -208 -152 -382 -57 -884 251 -1333 253 -367 626
-685 1045 -888 293 -143 565 -220 862 -246 149 -13 171 -13 310 -1 526 45 901
311 1029 730 50 165 60 366 27 545 -23 123 -22 121 -61 236 -186 561 -709
1103 -1346 1397 -332 153 -715 236 -1034 225z m386 -132 c232 -34 433 -98 669
-211 343 -163 612 -375 870 -681 97 -114 248 -374 301 -515 170 -455 103 -873
-185 -1149 -133 -128 -323 -221 -556 -272 -100 -22 -441 -25 -550 -5 -335 62
-593 158 -870 325 -391 234 -719 581 -900 952 -52 107 -117 300 -129 381 -19
126 -22 168 -19 254 1 52 7 124 14 160 24 133 109 326 139 316 8 -3 35 -12 60
-21 93 -35 232 2 296 78 50 59 68 108 68 182 1 39 -2 82 -6 96 -7 25 -5 27 70
52 227 77 468 96 728 58z"/>
</g>
</svg>
